<svg width="145" height="38" viewBox="0 0 145 38" fill="none" xmlns="http://www.w3.org/2000/svg">
<g clip-path="url(#clip0_1065_13838)">
<circle opacity="0.72" cx="1.01389" cy="10.0774" r="1.01389" fill="#0F62FE"/>
<circle cx="30.5592" cy="10.0944" r="1.44203" fill="#0F62FE"/>
<circle opacity="0.72" cx="4.71631" cy="7.87109" r="1.14209" fill="#0F62FE"/>
<circle opacity="0.72" cx="8.37443" cy="5.76554" r="1.2338" fill="#0F62FE"/>
<circle opacity="0.72" cx="12.0797" cy="3.70375" r="1.23207" fill="#0F62FE"/>
<circle cx="19.567" cy="3.6393" r="1.44203" fill="#0F62FE"/>
<circle cx="15.86" cy="1.44203" r="1.44203" fill="#0F62FE"/>
<circle cx="23.278" cy="5.83656" r="1.44203" fill="#0F62FE"/>
<circle cx="26.8522" cy="7.89613" r="1.44203" fill="#0F62FE"/>
<circle opacity="0.72" cx="1.14209" cy="1.14209" r="1.14209" transform="matrix(1 0 0 -1 3.57422 30.3516)" fill="#0F62FE"/>
<circle opacity="0.72" cx="1.2338" cy="1.2338" r="1.2338" transform="matrix(1 0 0 -1 7.14062 32.6855)" fill="#0F62FE"/>
<circle opacity="0.72" cx="1.23207" cy="1.23207" r="1.23207" transform="matrix(1 0 0 -1 10.8477 34.7461)" fill="#0F62FE"/>
<circle cx="1.44203" cy="1.44203" r="1.44203" transform="matrix(1 0 0 -1 18.125 34.8833)" fill="#0F62FE"/>
<circle cx="1.44203" cy="1.44203" r="1.44203" transform="matrix(1 0 0 -1 14.418 37.0806)" fill="#0F62FE"/>
<circle cx="1.44203" cy="1.44203" r="1.44203" transform="matrix(1 0 0 -1 21.8359 32.8232)" fill="#0F62FE"/>
<circle cx="1.44203" cy="1.44203" r="1.44203" transform="matrix(1 0 0 -1 25.4102 30.6255)" fill="#0F62FE"/>
<circle opacity="0.72" cx="1.14209" cy="1.14209" r="1.14209" transform="matrix(1 0 0 -1 3.57422 26.0938)" fill="#0F62FE"/>
<circle opacity="0.72" cx="1.2338" cy="1.2338" r="1.2338" transform="matrix(1 0 0 -1 7.14062 28.291)" fill="#0F62FE"/>
<circle opacity="0.72" cx="1.23207" cy="1.23207" r="1.23207" transform="matrix(1 0 0 -1 10.8477 30.4888)" fill="#0F62FE"/>
<circle cx="1.44203" cy="1.44203" r="1.44203" transform="matrix(1 0 0 -1 18.125 30.6255)" fill="#0F62FE"/>
<circle cx="1.44203" cy="1.44203" r="1.44203" transform="matrix(1 0 0 -1 14.418 32.8232)" fill="#0F62FE"/>
<circle cx="1.44203" cy="1.44203" r="1.44203" transform="matrix(1 0 0 -1 21.8359 28.5659)" fill="#0F62FE"/>
<circle cx="1.44203" cy="1.44203" r="1.44203" transform="matrix(1 0 0 -1 25.4102 26.3687)" fill="#0F62FE"/>
<circle opacity="0.72" cx="1.14209" cy="1.14209" r="1.14209" transform="matrix(1 0 0 -1 3.57422 21.8359)" fill="#0F62FE"/>
<circle opacity="0.72" cx="1.2338" cy="1.2338" r="1.2338" transform="matrix(1 0 0 -1 7.14062 24.0337)" fill="#0F62FE"/>
<circle opacity="0.72" cx="1.23207" cy="1.23207" r="1.23207" transform="matrix(1 0 0 -1 10.8477 26.231)" fill="#0F62FE"/>
<circle cx="1.44203" cy="1.44203" r="1.44203" transform="matrix(1 0 0 -1 18.125 26.3687)" fill="#0F62FE"/>
<circle cx="1.44203" cy="1.44203" r="1.44203" transform="matrix(1 0 0 -1 14.418 28.5659)" fill="#0F62FE"/>
<circle cx="1.44203" cy="1.44203" r="1.44203" transform="matrix(1 0 0 -1 21.8359 24.3086)" fill="#0F62FE"/>
<circle cx="1.44203" cy="1.44203" r="1.44203" transform="matrix(1 0 0 -1 25.4102 22.1108)" fill="#0F62FE"/>
<circle opacity="0.72" cx="1.14209" cy="1.14209" r="1.14209" transform="matrix(1 0 0 -1 3.57422 17.5791)" fill="#0F62FE"/>
<circle opacity="0.72" cx="1.2338" cy="1.2338" r="1.2338" transform="matrix(1 0 0 -1 7.14062 19.7764)" fill="#0F62FE"/>
<circle opacity="0.72" cx="1.23207" cy="1.23207" r="1.23207" transform="matrix(1 0 0 -1 10.8477 21.9736)" fill="#0F62FE"/>
<circle cx="1.44203" cy="1.44203" r="1.44203" transform="matrix(1 0 0 -1 18.125 22.1108)" fill="#0F62FE"/>
<circle cx="1.44203" cy="1.44203" r="1.44203" transform="matrix(1 0 0 -1 14.418 24.3086)" fill="#0F62FE"/>
<circle cx="1.44203" cy="1.44203" r="1.44203" transform="matrix(1 0 0 -1 21.8359 20.0508)" fill="#0F62FE"/>
<circle cx="1.44203" cy="1.44203" r="1.44203" transform="matrix(1 0 0 -1 25.4102 17.8535)" fill="#0F62FE"/>
<circle opacity="0.72" cx="1.14209" cy="1.14209" r="1.14209" transform="matrix(1 0 0 -1 3.57422 13.3218)" fill="#0F62FE"/>
<circle opacity="0.72" cx="1.2338" cy="1.2338" r="1.2338" transform="matrix(1 0 0 -1 7.14062 15.5186)" fill="#0F62FE"/>
<circle opacity="0.72" cx="1.23207" cy="1.23207" r="1.23207" transform="matrix(1 0 0 -1 10.8477 17.7163)" fill="#0F62FE"/>
<circle cx="1.44203" cy="1.44203" r="1.44203" transform="matrix(1 0 0 -1 18.125 17.8535)" fill="#0F62FE"/>
<circle cx="1.44203" cy="1.44203" r="1.44203" transform="matrix(1 0 0 -1 14.418 20.0508)" fill="#0F62FE"/>
<circle cx="1.44203" cy="1.44203" r="1.44203" transform="matrix(1 0 0 -1 21.8359 15.7939)" fill="#0F62FE"/>
<circle cx="1.44203" cy="1.44203" r="1.44203" transform="matrix(1 0 0 -1 25.4102 13.5967)" fill="#0F62FE"/>
<circle opacity="0.72" cx="1.2338" cy="1.2338" r="1.2338" transform="matrix(1 0 0 -1 7.14062 11.2617)" fill="#0F62FE"/>
<circle opacity="0.72" cx="1.23207" cy="1.23207" r="1.23207" transform="matrix(1 0 0 -1 10.8477 13.4585)" fill="#0F62FE"/>
<circle cx="1.44203" cy="1.44203" r="1.44203" transform="matrix(1 0 0 -1 18.125 13.5967)" fill="#0F62FE"/>
<circle cx="1.44203" cy="1.44203" r="1.44203" transform="matrix(1 0 0 -1 14.418 15.7939)" fill="#0F62FE"/>
<circle cx="1.44203" cy="1.44203" r="1.44203" transform="matrix(1 0 0 -1 21.8359 11.5361)" fill="#0F62FE"/>
<circle cx="1.44203" cy="1.44203" r="1.44203" transform="matrix(1 0 0 -1 25.4102 9.33838)" fill="#0F62FE"/>
<circle opacity="0.72" cx="1.23207" cy="1.23207" r="1.23207" transform="matrix(1 0 0 -1 10.8477 9.20117)" fill="#0F62FE"/>
<circle cx="1.44203" cy="1.44203" r="1.44203" transform="matrix(1 0 0 -1 18.125 9.33838)" fill="#0F62FE"/>
<circle cx="1.44203" cy="1.44203" r="1.44203" transform="matrix(1 0 0 -1 14.418 11.5361)" fill="#0F62FE"/>
<circle cx="1.44203" cy="1.44203" r="1.44203" transform="matrix(1 0 0 -1 14.418 7.27832)" fill="#0F62FE"/>
<circle opacity="0.72" cx="1.01389" cy="14.3357" r="1.01389" fill="#0F62FE"/>
<circle cx="30.5592" cy="14.3512" r="1.44203" fill="#0F62FE"/>
<circle opacity="0.72" cx="1.01389" cy="18.593" r="1.01389" fill="#0F62FE"/>
<circle cx="30.5592" cy="18.609" r="1.44203" fill="#0F62FE"/>
<circle opacity="0.72" cx="1.01389" cy="22.8498" r="1.01389" fill="#0F62FE"/>
<circle cx="30.5592" cy="22.8663" r="1.44203" fill="#0F62FE"/>
<circle opacity="0.72" cx="1.01389" cy="27.1076" r="1.01389" fill="#0F62FE"/>
<circle cx="30.5592" cy="27.1237" r="1.44203" fill="#0F62FE"/>
<path d="M43.248 27.04V24.6444H47.5325C48.7918 24.6444 49.8668 24.391 50.7575 23.8842C51.6481 23.3774 52.3238 22.671 52.7846 21.765C53.2606 20.8589 53.4986 19.8223 53.4986 18.6552C53.4986 17.5035 53.2606 16.4899 52.7846 15.6146C52.3238 14.7392 51.6481 14.0635 50.7575 13.5875C49.8821 13.096 48.8071 12.8503 47.5325 12.8503H43.294V10.4547H47.5325C49.3446 10.4547 50.9264 10.7925 52.2778 11.4682C53.6292 12.1439 54.6734 13.1037 55.4106 14.3476C56.1631 15.5762 56.5393 17.0274 56.5393 18.7013C56.5393 20.3752 56.1631 21.8418 55.4106 23.101C54.6581 24.3449 53.6061 25.3124 52.2547 26.0035C50.9187 26.6945 49.3523 27.04 47.5556 27.04H43.248ZM41.4282 27.04V10.4547H44.4228V27.04H41.4282ZM64.2089 27.2704C62.965 27.2704 61.867 27.0093 60.9149 26.4872C59.9781 25.9651 59.2487 25.2433 58.7266 24.3219C58.2044 23.3851 57.9434 22.3178 57.9434 21.12C57.9434 19.9222 58.2044 18.8702 58.7266 17.9642C59.2487 17.0581 59.9781 16.3517 60.9149 15.8449C61.867 15.3228 62.965 15.0617 64.2089 15.0617C65.4682 15.0617 66.5662 15.3228 67.503 15.8449C68.4398 16.3517 69.1692 17.0581 69.6913 17.9642C70.2135 18.8702 70.4745 19.9222 70.4745 21.12C70.4745 22.3178 70.2058 23.3851 69.6683 24.3219C69.1462 25.2433 68.4167 25.9651 67.48 26.4872C66.5432 27.0093 65.4529 27.2704 64.2089 27.2704ZM64.2089 24.9438C64.8232 24.9438 65.3761 24.7903 65.8675 24.4831C66.3589 24.1606 66.7428 23.7153 67.0192 23.1471C67.2957 22.5635 67.4339 21.8801 67.4339 21.0969C67.4339 19.9452 67.1267 19.0391 66.5125 18.3788C65.9136 17.7184 65.1457 17.3883 64.2089 17.3883C63.2722 17.3883 62.4967 17.7184 61.8824 18.3788C61.2681 19.0391 60.961 19.9452 60.961 21.0969C60.961 21.8801 61.0992 22.5635 61.3756 23.1471C61.6674 23.7153 62.0513 24.1606 62.5274 24.4831C63.0188 24.7903 63.5793 24.9438 64.2089 24.9438ZM77.7002 27.2704C76.5177 27.2704 75.4735 27.0093 74.5674 26.4872C73.6767 25.9651 72.9703 25.2433 72.4482 24.3219C71.9414 23.3851 71.688 22.3255 71.688 21.143C71.688 19.9605 71.9414 18.9163 72.4482 18.0102C72.9703 17.0888 73.6767 16.367 74.5674 15.8449C75.4735 15.3228 76.5177 15.0617 77.7002 15.0617C78.6677 15.0617 79.543 15.246 80.3262 15.6146C81.1094 15.9678 81.7544 16.4745 82.2612 17.1349C82.768 17.7799 83.0905 18.5324 83.2287 19.3923H80.4414C80.2725 18.7627 79.95 18.2713 79.4739 17.9181C78.9979 17.5649 78.422 17.3883 77.7463 17.3883C77.1167 17.3883 76.5715 17.5418 76.1108 17.849C75.6654 18.1561 75.3199 18.5938 75.0742 19.162C74.8285 19.7302 74.7056 20.3905 74.7056 21.143C74.7056 21.9109 74.8285 22.5789 75.0742 23.1471C75.3199 23.7153 75.6731 24.1606 76.1338 24.4831C76.5945 24.7903 77.132 24.9438 77.7463 24.9438C78.422 24.9438 78.9979 24.7672 79.4739 24.414C79.95 24.0608 80.2725 23.5694 80.4414 22.9398H83.2287C83.0905 23.7997 82.7603 24.5599 82.2382 25.2203C81.7314 25.8652 81.0864 26.372 80.3032 26.7406C79.5354 27.0938 78.6677 27.2704 77.7002 27.2704ZM85.3193 27.04V10.2934H88.2217V27.04H85.3193ZM92.8979 27.04L87.5537 20.9357L92.7366 15.2921H96.238L90.2488 21.4655L90.4101 20.3829L96.4683 27.04H92.8979ZM98.049 27.04V10.4547H101.044V27.04H98.049ZM108.899 27.04V10.4547H111.893V27.04H108.899ZM99.4771 17.227H110.258V19.5766H99.4771V17.227ZM114.856 27.04V15.2921H117.758V27.04H114.856ZM114.717 13.3571V10.1552H117.873V13.3571H114.717ZM123.93 27.04L119.231 15.2921H122.364L126.119 26.0956H124.575L128.33 15.2921H131.371L126.649 27.04H123.93ZM137.947 27.2704C136.703 27.2704 135.613 27.0093 134.676 26.4872C133.755 25.9651 133.033 25.2433 132.511 24.3219C132.004 23.4005 131.751 22.3409 131.751 21.143C131.751 19.9452 132.004 18.8932 132.511 17.9872C133.033 17.0658 133.755 16.3517 134.676 15.8449C135.597 15.3228 136.672 15.0617 137.901 15.0617C139.068 15.0617 140.082 15.3074 140.942 15.7988C141.802 16.2749 142.47 16.9506 142.946 17.8259C143.422 18.7013 143.66 19.7225 143.66 20.8896C143.66 21.1046 143.652 21.3043 143.637 21.4885C143.621 21.6728 143.598 21.8571 143.568 22.0414H133.547V20.0143H141.333L140.734 20.5671C140.734 19.4614 140.481 18.6322 139.974 18.0793C139.467 17.5265 138.761 17.2501 137.855 17.2501C136.872 17.2501 136.089 17.5879 135.505 18.2636C134.937 18.9393 134.653 19.9145 134.653 21.1891C134.653 22.4483 134.937 23.4158 135.505 24.0915C136.089 24.7519 136.91 25.082 137.97 25.082C138.584 25.082 139.122 24.9669 139.583 24.7365C140.043 24.5062 140.381 24.153 140.596 23.6769H143.337C142.953 24.7826 142.301 25.6579 141.379 26.3029C140.473 26.9479 139.329 27.2704 137.947 27.2704Z" fill="white"/>
</g>
<defs>
<clipPath id="clip0_1065_13838">
<rect width="145.001" height="37.0806" fill="white"/>
</clipPath>
</defs>
</svg>
