<svg width="1281" height="333" viewBox="0 0 1281 333" fill="none" xmlns="http://www.w3.org/2000/svg">
<g clip-path="url(#clip0_971_74938)">
<mask id="path-1-inside-1_971_74938" fill="white">
<path d="M0.785156 0.5H1280.79V332.5H0.785156V0.5Z"/>
</mask>
<g opacity="0.46">
<mask id="mask0_971_74938" style="mask-type:alpha" maskUnits="userSpaceOnUse" x="-3" y="-150" width="1378" height="1328">
<g style="mix-blend-mode:plus-lighter" opacity="0.03">
<path d="M115.701 115.887L221.985 54.5238C227.327 51.4398 230.618 45.7401 230.618 39.5719V-73.1861C230.618 -79.3543 227.327 -85.0539 221.985 -88.138L124.334 -144.517C118.992 -147.601 112.411 -147.601 107.069 -144.517L9.41766 -88.138C4.07585 -85.0539 0.785156 -79.3543 0.785156 -73.1861V39.5719C0.785156 45.7401 4.07585 51.4398 9.41766 54.5239L115.701 115.887ZM115.701 115.887L221.985 177.25C227.327 180.334 230.618 186.034 230.618 192.202V304.96C230.618 311.128 227.327 316.828 221.985 319.912L115.701 381.275M115.701 115.887L9.41766 177.25C4.07585 180.334 0.785156 186.034 0.785156 192.202V304.96C0.785156 311.128 4.07585 316.828 9.41766 319.912L115.701 381.275M115.701 381.275L221.985 442.638C227.327 445.722 230.618 451.421 230.618 457.59V570.348C230.618 576.516 227.327 582.215 221.985 585.299L115.701 646.662M115.701 381.275L9.41766 442.638C4.07585 445.722 0.785156 451.421 0.785156 457.59V570.348C0.785156 576.516 4.07585 582.215 9.41766 585.299L115.701 646.662M115.701 646.662L221.985 708.025C227.327 711.109 230.618 716.809 230.618 722.977V835.735C230.618 841.903 227.327 847.603 221.985 850.687L115.701 912.05M115.701 646.662L9.41766 708.025C4.07585 711.109 0.785156 716.809 0.785156 722.977V835.735C0.785156 841.903 4.07585 847.603 9.41766 850.687L115.701 912.05M115.701 912.05L221.985 973.413C227.327 976.497 230.618 982.197 230.618 988.365V1101.12C230.618 1107.29 227.327 1112.99 221.985 1116.08L124.334 1172.45C118.992 1175.54 112.411 1175.54 107.069 1172.45L9.41766 1116.08C4.07585 1112.99 0.785156 1107.29 0.785156 1101.12V988.365C0.785156 982.197 4.07585 976.497 9.41766 973.413L115.701 912.05ZM343.935 115.887L450.219 54.5238C455.561 51.4398 458.851 45.7401 458.851 39.5719V-73.1861C458.851 -79.3543 455.56 -85.0539 450.219 -88.138L352.567 -144.517C347.226 -147.601 340.644 -147.601 335.302 -144.517L237.651 -88.138C232.309 -85.0539 229.019 -79.3543 229.019 -73.1861V39.5719C229.019 45.7401 232.309 51.4398 237.651 54.5239L343.935 115.887ZM343.935 115.887L450.219 177.25C455.56 180.334 458.851 186.034 458.851 192.202V304.96C458.851 311.128 455.561 316.828 450.219 319.912L343.935 381.275M343.935 115.887L237.651 177.25C232.309 180.334 229.019 186.034 229.019 192.202V304.96C229.019 311.128 232.309 316.828 237.651 319.912L343.935 381.275M343.935 381.275L450.219 442.638C455.56 445.722 458.851 451.421 458.851 457.59V570.348C458.851 576.516 455.561 582.215 450.219 585.299L343.935 646.662M343.935 381.275L237.651 442.638C232.309 445.722 229.019 451.421 229.019 457.59V570.348C229.019 576.516 232.309 582.215 237.651 585.299L343.935 646.662M343.935 646.662L450.219 708.025C455.56 711.109 458.851 716.809 458.851 722.977V835.735C458.851 841.903 455.561 847.603 450.219 850.687L343.935 912.05M343.935 646.662L237.651 708.025C232.309 711.109 229.019 716.809 229.019 722.977V835.735C229.019 841.903 232.309 847.603 237.651 850.687L343.935 912.05M343.935 912.05L450.219 973.413C455.56 976.497 458.851 982.197 458.851 988.365V1101.12C458.851 1107.29 455.561 1112.99 450.219 1116.08L352.567 1172.45C347.226 1175.54 340.644 1175.54 335.302 1172.45L237.651 1116.08C232.309 1112.99 229.019 1107.29 229.019 1101.12V988.365C229.019 982.197 232.309 976.497 237.651 973.413L343.935 912.05ZM572.168 115.887L678.452 54.5238C683.794 51.4398 687.085 45.7401 687.085 39.5719V-73.1861C687.085 -79.3543 683.794 -85.0539 678.452 -88.138L580.801 -144.517C575.459 -147.601 568.878 -147.601 563.536 -144.517L465.885 -88.138C460.543 -85.0539 457.252 -79.3543 457.252 -73.1861V39.5719C457.252 45.7401 460.543 51.4398 465.885 54.5239L572.168 115.887ZM572.168 115.887L678.452 177.25C683.794 180.334 687.085 186.034 687.085 192.202V304.96C687.085 311.128 683.794 316.828 678.452 319.912L572.168 381.275M572.168 115.887L465.885 177.25C460.543 180.334 457.252 186.034 457.252 192.202V304.96C457.252 311.128 460.543 316.828 465.885 319.912L572.168 381.275M572.168 381.275L678.452 442.638C683.794 445.722 687.085 451.421 687.085 457.59V570.348C687.085 576.516 683.794 582.215 678.452 585.299L572.168 646.662M572.168 381.275L465.885 442.638C460.543 445.722 457.252 451.421 457.252 457.59V570.348C457.252 576.516 460.543 582.215 465.885 585.299L572.168 646.662M572.168 646.662L678.452 708.025C683.794 711.109 687.085 716.809 687.085 722.977V835.735C687.085 841.903 683.794 847.603 678.452 850.687L572.168 912.05M572.168 646.662L465.885 708.025C460.543 711.109 457.252 716.809 457.252 722.977V835.735C457.252 841.903 460.543 847.603 465.885 850.687L572.168 912.05M572.168 912.05L678.452 973.413C683.794 976.497 687.085 982.197 687.085 988.365V1101.12C687.085 1107.29 683.794 1112.99 678.452 1116.08L580.801 1172.45C575.459 1175.54 568.878 1175.54 563.536 1172.45L465.885 1116.08C460.543 1112.99 457.252 1107.29 457.252 1101.12V988.365C457.252 982.197 460.543 976.497 465.885 973.413L572.168 912.05ZM800.402 115.887L906.686 54.5238C912.027 51.4398 915.318 45.7401 915.318 39.5719V-73.1861C915.318 -79.3543 912.027 -85.0539 906.686 -88.138L809.034 -144.517C803.693 -147.601 797.111 -147.601 791.769 -144.517L694.118 -88.138C688.776 -85.0539 685.486 -79.3543 685.486 -73.1861V39.5719C685.486 45.7401 688.776 51.4398 694.118 54.5239L800.402 115.887ZM800.402 115.887L906.686 177.25C912.027 180.334 915.318 186.034 915.318 192.202V304.96C915.318 311.128 912.027 316.828 906.686 319.912L800.402 381.275M800.402 115.887L694.118 177.25C688.776 180.334 685.486 186.034 685.486 192.202V304.96C685.486 311.128 688.776 316.828 694.118 319.912L800.402 381.275M800.402 381.275L906.686 442.638C912.027 445.722 915.318 451.421 915.318 457.59V570.348C915.318 576.516 912.027 582.215 906.686 585.299L800.402 646.662M800.402 381.275L694.118 442.638C688.776 445.722 685.486 451.421 685.486 457.59V570.348C685.486 576.516 688.776 582.215 694.118 585.299L800.402 646.662M800.402 646.662L906.686 708.025C912.027 711.109 915.318 716.809 915.318 722.977V835.735C915.318 841.903 912.027 847.603 906.686 850.687L800.402 912.05M800.402 646.662L694.118 708.025C688.776 711.109 685.486 716.809 685.486 722.977V835.735C685.486 841.903 688.776 847.603 694.118 850.687L800.402 912.05M800.402 912.05L906.686 973.413C912.027 976.497 915.318 982.197 915.318 988.365V1101.12C915.318 1107.29 912.027 1112.99 906.686 1116.08L809.034 1172.45C803.693 1175.54 797.111 1175.54 791.769 1172.45L694.118 1116.08C688.776 1112.99 685.486 1107.29 685.486 1101.12V988.365C685.486 982.197 688.776 976.497 694.118 973.413L800.402 912.05ZM1028.64 115.887L1134.92 54.5238C1140.26 51.4398 1143.55 45.7401 1143.55 39.5719V-73.1861C1143.55 -79.3543 1140.26 -85.0539 1134.92 -88.138L1037.27 -144.517C1031.93 -147.601 1025.34 -147.601 1020 -144.517L922.352 -88.138C917.01 -85.0539 913.719 -79.3543 913.719 -73.1861V39.5719C913.719 45.7401 917.01 51.4398 922.352 54.5239L1028.64 115.887ZM1028.64 115.887L1134.92 177.25C1140.26 180.334 1143.55 186.034 1143.55 192.202V304.96C1143.55 311.128 1140.26 316.828 1134.92 319.912L1028.64 381.275M1028.64 115.887L922.352 177.25C917.01 180.334 913.719 186.034 913.719 192.202V304.96C913.719 311.128 917.01 316.828 922.352 319.912L1028.64 381.275M1028.64 381.275L1134.92 442.638C1140.26 445.722 1143.55 451.421 1143.55 457.59V570.348C1143.55 576.516 1140.26 582.215 1134.92 585.299L1028.64 646.662M1028.64 381.275L922.352 442.638C917.01 445.722 913.719 451.421 913.719 457.59V570.348C913.719 576.516 917.01 582.215 922.352 585.299L1028.64 646.662M1028.64 646.662L1134.92 708.025C1140.26 711.109 1143.55 716.809 1143.55 722.977V835.735C1143.55 841.903 1140.26 847.603 1134.92 850.687L1028.64 912.05M1028.64 646.662L922.352 708.025C917.01 711.109 913.719 716.809 913.719 722.977V835.735C913.719 841.903 917.01 847.603 922.352 850.687L1028.64 912.05M1028.64 912.05L1134.92 973.413C1140.26 976.497 1143.55 982.197 1143.55 988.365V1101.12C1143.55 1107.29 1140.26 1112.99 1134.92 1116.08L1037.27 1172.45C1031.93 1175.54 1025.34 1175.54 1020 1172.45L922.352 1116.08C917.01 1112.99 913.719 1107.29 913.719 1101.12V988.365C913.719 982.197 917.01 976.497 922.352 973.413L1028.64 912.05ZM1256.87 115.887L1363.15 54.5238C1368.49 51.4398 1371.79 45.7401 1371.79 39.5719V-73.1861C1371.79 -79.3543 1368.49 -85.0539 1363.15 -88.138L1265.5 -144.517C1260.16 -147.601 1253.58 -147.601 1248.24 -144.517L1150.59 -88.138C1145.24 -85.0539 1141.95 -79.3543 1141.95 -73.1861V39.5719C1141.95 45.7401 1145.24 51.4398 1150.59 54.5239L1256.87 115.887ZM1256.87 115.887L1363.15 177.25C1368.49 180.334 1371.79 186.034 1371.79 192.202V304.96C1371.79 311.128 1368.49 316.828 1363.15 319.912L1256.87 381.275M1256.87 115.887L1150.59 177.25C1145.24 180.334 1141.95 186.034 1141.95 192.202V304.96C1141.95 311.128 1145.24 316.828 1150.59 319.912L1256.87 381.275M1256.87 381.275L1363.15 442.638C1368.49 445.722 1371.79 451.421 1371.79 457.59V570.348C1371.79 576.516 1368.49 582.215 1363.15 585.299L1256.87 646.662M1256.87 381.275L1150.59 442.638C1145.24 445.722 1141.95 451.421 1141.95 457.59V570.348C1141.95 576.516 1145.24 582.215 1150.59 585.299L1256.87 646.662M1256.87 646.662L1363.15 708.025C1368.49 711.109 1371.79 716.809 1371.79 722.977V835.735C1371.79 841.903 1368.49 847.603 1363.15 850.687L1256.87 912.05M1256.87 646.662L1150.59 708.025C1145.24 711.109 1141.95 716.809 1141.95 722.977V835.735C1141.95 841.903 1145.24 847.603 1150.59 850.687L1256.87 912.05M1256.87 912.05L1363.15 973.413C1368.49 976.497 1371.79 982.197 1371.79 988.365V1101.12C1371.79 1107.29 1368.49 1112.99 1363.15 1116.08L1265.5 1172.45C1260.16 1175.54 1253.58 1175.54 1248.24 1172.45L1150.59 1116.08C1145.24 1112.99 1141.95 1107.29 1141.95 1101.12V988.365C1141.95 982.197 1145.24 976.497 1150.59 973.413L1256.87 912.05Z" stroke="url(#paint0_linear_971_74938)" stroke-width="6.28035"/>
</g>
</mask>
<g mask="url(#mask0_971_74938)">
<rect x="0.785156" y="-150.129" width="1371" height="1327.04" fill="url(#paint1_linear_971_74938)"/>
</g>
</g>
<g opacity="0.34" filter="url(#filter0_f_971_74938)">
<ellipse cx="685.785" cy="1" rx="349" ry="44.5" fill="#0F62FE"/>
</g>
</g>
<path d="M0.785156 0.5V1.5H1280.79V0.5V-0.5H0.785156V0.5Z" fill="url(#paint2_linear_971_74938)" mask="url(#path-1-inside-1_971_74938)"/>
<defs>
<filter id="filter0_f_971_74938" x="82.4852" y="-297.8" width="1206.6" height="597.6" filterUnits="userSpaceOnUse" color-interpolation-filters="sRGB">
<feFlood flood-opacity="0" result="BackgroundImageFix"/>
<feBlend mode="normal" in="SourceGraphic" in2="BackgroundImageFix" result="shape"/>
<feGaussianBlur stdDeviation="127.15" result="effect1_foregroundBlur_971_74938"/>
</filter>
<linearGradient id="paint0_linear_971_74938" x1="1302.14" y1="-333.173" x2="313.665" y2="1115.4" gradientUnits="userSpaceOnUse">
<stop offset="0.0548105" stop-color="#FF9809"/>
<stop offset="1" stop-color="#FFE37D"/>
</linearGradient>
<linearGradient id="paint1_linear_971_74938" x1="686.285" y1="-150.129" x2="685.971" y2="993.522" gradientUnits="userSpaceOnUse">
<stop stop-color="#F4B917"/>
<stop offset="1" stop-color="#F4B917" stop-opacity="0"/>
</linearGradient>
<linearGradient id="paint2_linear_971_74938" x1="1280.79" y1="0.499997" x2="0.785156" y2="0.500008" gradientUnits="userSpaceOnUse">
<stop stop-color="#0F62FE" stop-opacity="0"/>
<stop offset="0.492645" stop-color="#0F62FE"/>
<stop offset="1" stop-color="#0F62FE" stop-opacity="0"/>
</linearGradient>
<clipPath id="clip0_971_74938">
<path d="M0.785156 0.5H1280.79V332.5H0.785156V0.5Z" fill="white"/>
</clipPath>
</defs>
</svg>
