<svg width="2031" height="2031" viewBox="0 0 2031 2031" fill="none" xmlns="http://www.w3.org/2000/svg" xmlns:xlink="http://www.w3.org/1999/xlink">
<g clip-path="url(#clip0_1_56575)">
<rect width="2031" height="2031" rx="106" fill="#100B01"/>
<g clip-path="url(#clip1_1_56575)">
<rect width="2031" height="2031" fill="url(#paint0_linear_1_56575)"/>
<path d="M106.978 382.569L276.21 284.862C284.715 279.952 289.955 270.876 289.955 261.055V81.5138C289.955 71.6924 284.715 62.617 276.21 57.7063L120.723 -32.0642C112.217 -36.9749 101.738 -36.9749 93.2323 -32.0642L-62.2547 57.7063C-70.7603 62.617 -76 71.6924 -76 81.5138V261.055C-76 270.876 -70.7603 279.952 -62.2547 284.862L106.978 382.569ZM106.978 382.569L276.21 480.275C284.715 485.186 289.955 494.261 289.955 504.082V683.623C289.955 693.445 284.715 702.52 276.21 707.431L106.978 805.137M106.978 382.569L-62.2547 480.275C-70.7603 485.186 -76 494.261 -76 504.082V683.623C-76 693.445 -70.7603 702.52 -62.2547 707.431L106.978 805.137M106.978 805.137L276.21 902.844C284.715 907.754 289.955 916.83 289.955 926.651V1106.19C289.955 1116.01 284.715 1125.09 276.21 1130L106.978 1227.71M106.978 805.137L-62.2547 902.844C-70.7603 907.754 -76 916.83 -76 926.651V1106.19C-76 1116.01 -70.7603 1125.09 -62.2547 1130L106.978 1227.71M106.978 1227.71L276.21 1325.41C284.715 1330.32 289.955 1339.4 289.955 1349.22V1528.76C289.955 1538.58 284.715 1547.66 276.21 1552.57L106.978 1650.27M106.978 1227.71L-62.2547 1325.41C-70.7603 1330.32 -76 1339.4 -76 1349.22V1528.76C-76 1538.58 -70.7603 1547.66 -62.2547 1552.57L106.978 1650.27M106.978 1650.27L276.21 1747.98C284.715 1752.89 289.955 1761.97 289.955 1771.79V1951.33C289.955 1961.15 284.715 1970.23 276.21 1975.14L120.723 2064.91C112.217 2069.82 101.738 2069.82 93.2323 2064.91L-62.2547 1975.14C-70.7603 1970.23 -76 1961.15 -76 1951.33V1771.79C-76 1761.97 -70.7603 1752.89 -62.2547 1747.98L106.978 1650.27ZM470.387 382.569L639.619 284.862C648.124 279.952 653.364 270.876 653.364 261.055V81.5138C653.364 71.6924 648.124 62.617 639.619 57.7063L484.132 -32.0642C475.626 -36.9749 465.147 -36.9749 456.641 -32.0642L301.154 57.7063C292.649 62.617 287.409 71.6924 287.409 81.5138V261.055C287.409 270.876 292.649 279.952 301.154 284.862L470.387 382.569ZM470.387 382.569L639.619 480.275C648.124 485.186 653.364 494.261 653.364 504.082V683.623C653.364 693.445 648.124 702.52 639.619 707.431L470.387 805.137M470.387 382.569L301.154 480.275C292.649 485.186 287.409 494.261 287.409 504.082V683.623C287.409 693.445 292.649 702.52 301.154 707.431L470.387 805.137M470.387 805.137L639.619 902.844C648.124 907.754 653.364 916.83 653.364 926.651V1106.19C653.364 1116.01 648.124 1125.09 639.619 1130L470.387 1227.71M470.387 805.137L301.154 902.844C292.649 907.754 287.409 916.83 287.409 926.651V1106.19C287.409 1116.01 292.649 1125.09 301.154 1130L470.387 1227.71M470.387 1227.71L639.619 1325.41C648.124 1330.32 653.364 1339.4 653.364 1349.22V1528.76C653.364 1538.58 648.124 1547.66 639.619 1552.57L470.387 1650.27M470.387 1227.71L301.154 1325.41C292.649 1330.32 287.409 1339.4 287.409 1349.22V1528.76C287.409 1538.58 292.649 1547.66 301.154 1552.57L470.387 1650.27M470.387 1650.27L639.619 1747.98C648.124 1752.89 653.364 1761.97 653.364 1771.79V1951.33C653.364 1961.15 648.124 1970.23 639.619 1975.14L484.132 2064.91C475.626 2069.82 465.147 2069.82 456.641 2064.91L301.154 1975.14C292.649 1970.23 287.409 1961.15 287.409 1951.33V1771.79C287.409 1761.97 292.649 1752.89 301.154 1747.98L470.387 1650.27ZM833.795 382.569L1003.03 284.862C1011.53 279.952 1016.77 270.876 1016.77 261.055V81.5138C1016.77 71.6924 1011.53 62.617 1003.03 57.7063L847.541 -32.0642C839.035 -36.9749 828.556 -36.9749 820.05 -32.0642L664.563 57.7063C656.058 62.617 650.818 71.6924 650.818 81.5138V261.055C650.818 270.876 656.058 279.952 664.563 284.862L833.795 382.569ZM833.795 382.569L1003.03 480.275C1011.53 485.186 1016.77 494.261 1016.77 504.082V683.623C1016.77 693.445 1011.53 702.52 1003.03 707.431L833.795 805.137M833.795 382.569L664.563 480.275C656.058 485.186 650.818 494.261 650.818 504.082V683.623C650.818 693.445 656.058 702.52 664.563 707.431L833.795 805.137M833.795 805.137L1003.03 902.844C1011.53 907.754 1016.77 916.83 1016.77 926.651V1106.19C1016.77 1116.01 1011.53 1125.09 1003.03 1130L833.795 1227.71M833.795 805.137L664.563 902.844C656.058 907.754 650.818 916.83 650.818 926.651V1106.19C650.818 1116.01 656.058 1125.09 664.563 1130L833.795 1227.71M833.795 1227.71L1003.03 1325.41C1011.53 1330.32 1016.77 1339.4 1016.77 1349.22V1528.76C1016.77 1538.58 1011.53 1547.66 1003.03 1552.57L833.795 1650.27M833.795 1227.71L664.563 1325.41C656.058 1330.32 650.818 1339.4 650.818 1349.22V1528.76C650.818 1538.58 656.058 1547.66 664.563 1552.57L833.795 1650.27M833.795 1650.27L1003.03 1747.98C1011.53 1752.89 1016.77 1761.97 1016.77 1771.79V1951.33C1016.77 1961.15 1011.53 1970.23 1003.03 1975.14L847.541 2064.91C839.035 2069.82 828.556 2069.82 820.05 2064.91L664.563 1975.14C656.058 1970.23 650.818 1961.15 650.818 1951.33V1771.79C650.818 1761.97 656.058 1752.89 664.563 1747.98L833.795 1650.27ZM1197.2 382.569L1366.44 284.862C1374.94 279.952 1380.18 270.876 1380.18 261.055V81.5138C1380.18 71.6924 1374.94 62.617 1366.44 57.7063L1210.95 -32.0642C1202.44 -36.9749 1191.96 -36.9749 1183.46 -32.0642L1027.97 57.7063C1019.47 62.617 1014.23 71.6924 1014.23 81.5138V261.055C1014.23 270.876 1019.47 279.952 1027.97 284.862L1197.2 382.569ZM1197.2 382.569L1366.44 480.275C1374.94 485.186 1380.18 494.261 1380.18 504.082V683.623C1380.18 693.445 1374.94 702.52 1366.44 707.431L1197.2 805.137M1197.2 382.569L1027.97 480.275C1019.47 485.186 1014.23 494.261 1014.23 504.082V683.623C1014.23 693.445 1019.47 702.52 1027.97 707.431L1197.2 805.137M1197.2 805.137L1366.44 902.844C1374.94 907.754 1380.18 916.83 1380.18 926.651V1106.19C1380.18 1116.01 1374.94 1125.09 1366.44 1130L1197.2 1227.71M1197.2 805.137L1027.97 902.844C1019.47 907.754 1014.23 916.83 1014.23 926.651V1106.19C1014.23 1116.01 1019.47 1125.09 1027.97 1130L1197.2 1227.71M1197.2 1227.71L1366.44 1325.41C1374.94 1330.32 1380.18 1339.4 1380.18 1349.22V1528.76C1380.18 1538.58 1374.94 1547.66 1366.44 1552.57L1197.2 1650.27M1197.2 1227.71L1027.97 1325.41C1019.47 1330.32 1014.23 1339.4 1014.23 1349.22V1528.76C1014.23 1538.58 1019.47 1547.66 1027.97 1552.57L1197.2 1650.27M1197.2 1650.27L1366.44 1747.98C1374.94 1752.89 1380.18 1761.97 1380.18 1771.79V1951.33C1380.18 1961.15 1374.94 1970.23 1366.44 1975.14L1210.95 2064.91C1202.44 2069.82 1191.96 2069.82 1183.46 2064.91L1027.97 1975.14C1019.47 1970.23 1014.23 1961.15 1014.23 1951.33V1771.79C1014.23 1761.97 1019.47 1752.89 1027.97 1747.98L1197.2 1650.27ZM1560.61 382.569L1729.85 284.862C1738.35 279.952 1743.59 270.876 1743.59 261.055V81.5138C1743.59 71.6924 1738.35 62.617 1729.85 57.7063L1574.36 -32.0642C1565.85 -36.9749 1555.37 -36.9749 1546.87 -32.0642L1391.38 57.7063C1382.88 62.617 1377.64 71.6924 1377.64 81.5138V261.055C1377.64 270.876 1382.88 279.952 1391.38 284.862L1560.61 382.569ZM1560.61 382.569L1729.85 480.275C1738.35 485.186 1743.59 494.261 1743.59 504.082V683.623C1743.59 693.445 1738.35 702.52 1729.85 707.431L1560.61 805.137M1560.61 382.569L1391.38 480.275C1382.88 485.186 1377.64 494.261 1377.64 504.082V683.623C1377.64 693.445 1382.88 702.52 1391.38 707.431L1560.61 805.137M1560.61 805.137L1729.85 902.844C1738.35 907.754 1743.59 916.83 1743.59 926.651V1106.19C1743.59 1116.01 1738.35 1125.09 1729.85 1130L1560.61 1227.71M1560.61 805.137L1391.38 902.844C1382.88 907.754 1377.64 916.83 1377.64 926.651V1106.19C1377.64 1116.01 1382.88 1125.09 1391.38 1130L1560.61 1227.71M1560.61 1227.71L1729.85 1325.41C1738.35 1330.32 1743.59 1339.4 1743.59 1349.22V1528.76C1743.59 1538.58 1738.35 1547.66 1729.85 1552.57L1560.61 1650.27M1560.61 1227.71L1391.38 1325.41C1382.88 1330.32 1377.64 1339.4 1377.64 1349.22V1528.76C1377.64 1538.58 1382.88 1547.66 1391.38 1552.57L1560.61 1650.27M1560.61 1650.27L1729.85 1747.98C1738.35 1752.89 1743.59 1761.97 1743.59 1771.79V1951.33C1743.59 1961.15 1738.35 1970.23 1729.85 1975.14L1574.36 2064.91C1565.85 2069.82 1555.37 2069.82 1546.87 2064.91L1391.38 1975.14C1382.88 1970.23 1377.64 1961.15 1377.64 1951.33V1771.79C1377.64 1761.97 1382.88 1752.89 1391.38 1747.98L1560.61 1650.27ZM1924.02 382.569L2093.25 284.862C2101.76 279.952 2107 270.876 2107 261.055V81.5138C2107 71.6924 2101.76 62.617 2093.25 57.7063L1937.77 -32.0642C1929.26 -36.9749 1918.78 -36.9749 1910.28 -32.0642L1754.79 57.7063C1746.28 62.617 1741.04 71.6924 1741.04 81.5138V261.055C1741.04 270.876 1746.28 279.952 1754.79 284.862L1924.02 382.569ZM1924.02 382.569L2093.25 480.275C2101.76 485.186 2107 494.261 2107 504.082V683.623C2107 693.445 2101.76 702.52 2093.25 707.431L1924.02 805.137M1924.02 382.569L1754.79 480.275C1746.28 485.186 1741.04 494.261 1741.04 504.082V683.623C1741.04 693.445 1746.28 702.52 1754.79 707.431L1924.02 805.137M1924.02 805.137L2093.25 902.844C2101.76 907.754 2107 916.83 2107 926.651V1106.19C2107 1116.01 2101.76 1125.09 2093.25 1130L1924.02 1227.71M1924.02 805.137L1754.79 902.844C1746.28 907.754 1741.04 916.83 1741.04 926.651V1106.19C1741.04 1116.01 1746.28 1125.09 1754.79 1130L1924.02 1227.71M1924.02 1227.71L2093.25 1325.41C2101.76 1330.32 2107 1339.4 2107 1349.22V1528.76C2107 1538.58 2101.76 1547.66 2093.25 1552.57L1924.02 1650.27M1924.02 1227.71L1754.79 1325.41C1746.28 1330.32 1741.04 1339.4 1741.04 1349.22V1528.76C1741.04 1538.58 1746.28 1547.66 1754.79 1552.57L1924.02 1650.27M1924.02 1650.27L2093.25 1747.98C2101.76 1752.89 2107 1761.97 2107 1771.79V1951.33C2107 1961.15 2101.76 1970.23 2093.25 1975.14L1937.77 2064.91C1929.26 2069.82 1918.78 2069.82 1910.28 2064.91L1754.79 1975.14C1746.28 1970.23 1741.04 1961.15 1741.04 1951.33V1771.79C1741.04 1761.97 1746.28 1752.89 1754.79 1747.98L1924.02 1650.27Z" stroke="url(#paint1_linear_1_56575)" stroke-width="10"/>
<path d="M180.928 1694H148.424V1595.67H180.384C209.76 1595.67 229.616 1615.53 229.616 1644.9C229.616 1674.14 210.032 1694 180.928 1694ZM179.432 1607.91H161.752V1681.62H179.976C201.872 1681.62 215.744 1667.48 215.744 1644.9C215.744 1622.06 201.872 1607.91 179.432 1607.91ZM263.844 1695.63C249.564 1695.63 241.132 1687.61 241.132 1675.5C241.132 1663.26 250.244 1655.65 265.884 1654.42L286.828 1652.79V1650.89C286.828 1639.74 280.164 1635.79 271.188 1635.79C260.444 1635.79 254.324 1640.55 254.324 1648.58H243.172C243.172 1634.7 254.596 1625.59 271.732 1625.59C288.188 1625.59 299.34 1634.3 299.34 1652.25V1694H288.46L287.1 1683.26C283.7 1690.87 274.588 1695.63 263.844 1695.63ZM267.516 1685.7C279.62 1685.7 286.964 1677.82 286.964 1665.3V1661.77L269.964 1663.13C258.676 1664.22 254.052 1668.57 254.052 1675.1C254.052 1682.17 259.22 1685.7 267.516 1685.7ZM334.75 1694H321.966V1638.24H308.91V1627.5H321.966V1606.69H334.75V1627.5H347.806V1638.24H334.75V1694ZM377.93 1695.63C363.65 1695.63 355.218 1687.61 355.218 1675.5C355.218 1663.26 364.33 1655.65 379.97 1654.42L400.914 1652.79V1650.89C400.914 1639.74 394.25 1635.79 385.274 1635.79C374.53 1635.79 368.41 1640.55 368.41 1648.58H357.258C357.258 1634.7 368.682 1625.59 385.818 1625.59C402.274 1625.59 413.426 1634.3 413.426 1652.25V1694H402.546L401.186 1683.26C397.786 1690.87 388.674 1695.63 377.93 1695.63ZM381.602 1685.7C393.706 1685.7 401.05 1677.82 401.05 1665.3V1661.77L384.05 1663.13C372.762 1664.22 368.138 1668.57 368.138 1675.1C368.138 1682.17 373.306 1685.7 381.602 1685.7ZM559.166 1644.77C559.166 1674.69 539.582 1695.63 511.702 1695.63C483.958 1695.63 464.646 1674.69 464.646 1644.77C464.646 1614.98 484.094 1593.9 511.838 1593.9C539.718 1593.9 559.166 1614.85 559.166 1644.77ZM545.158 1644.77C545.158 1621.92 531.83 1606.82 511.838 1606.82C491.846 1606.82 478.654 1621.92 478.654 1644.77C478.654 1667.62 491.846 1682.85 511.838 1682.85C531.83 1682.85 545.158 1667.48 545.158 1644.77ZM588.317 1694L566.557 1627.5H579.749L590.765 1662.04C592.261 1666.94 593.621 1671.97 594.845 1677.82C595.933 1671.97 597.701 1666.39 599.197 1662.04L610.349 1627.5H623.405L634.421 1662.04C635.509 1665.3 637.685 1673.06 638.773 1677.82C639.861 1672.51 641.085 1667.89 642.989 1662.04L654.141 1627.5H667.469L644.757 1694H632.653L621.093 1658.37C618.917 1651.7 617.557 1646.54 616.877 1642.86C616.197 1646.13 614.973 1650.48 612.525 1658.5L600.965 1694H588.317ZM691.212 1694H678.428V1627.5H689.988L691.348 1637.7C695.564 1630.08 703.996 1625.59 713.38 1625.59C730.924 1625.59 738.948 1636.34 738.948 1653.34V1694H726.164V1656.19C726.164 1642.73 719.908 1637.29 710.116 1637.29C698.148 1637.29 691.212 1645.86 691.212 1658.78V1694ZM785.35 1695.63C765.766 1695.63 752.302 1681.49 752.302 1660.82C752.302 1640.01 765.494 1625.59 784.806 1625.59C803.71 1625.59 816.086 1638.65 816.086 1658.37V1663.13L764.678 1663.26C765.63 1677.27 772.974 1685.02 785.622 1685.02C795.55 1685.02 802.078 1680.94 804.254 1673.33H816.222C812.958 1687.61 801.806 1695.63 785.35 1695.63ZM784.806 1636.34C773.654 1636.34 766.582 1643 764.95 1654.7H803.302C803.302 1643.68 796.094 1636.34 784.806 1636.34ZM868.445 1626.95V1638.65H862.733C850.629 1638.65 843.149 1645.99 843.149 1658.78V1694H830.365V1627.63H842.333L843.149 1637.7C845.869 1630.76 852.533 1626.14 861.645 1626.14C863.957 1626.14 865.861 1626.41 868.445 1626.95ZM874.996 1674.69H887.236C887.236 1681.49 892.404 1685.57 900.836 1685.57C909.812 1685.57 914.98 1681.9 914.98 1675.78C914.98 1671.29 912.804 1668.57 905.868 1666.8L894.172 1664.08C882.34 1661.22 876.764 1655.38 876.764 1645.58C876.764 1633.34 887.1 1625.59 901.788 1625.59C916.34 1625.59 925.86 1633.75 926.132 1646.4H913.892C913.62 1639.74 909.132 1635.52 901.38 1635.52C893.356 1635.52 888.868 1639.06 888.868 1645.18C888.868 1649.66 892.132 1652.66 898.66 1654.29L910.356 1657.14C921.644 1659.86 927.22 1665.03 927.22 1674.96C927.22 1687.61 916.34 1695.63 900.564 1695.63C884.924 1695.63 874.996 1687.34 874.996 1674.69ZM954.18 1693.86H941.396V1593.9H954.18V1637.7C958.396 1630.49 966.42 1625.59 976.756 1625.59C993.756 1625.59 1001.92 1636.34 1001.92 1653.34V1694H989.132V1656.19C989.132 1642.73 982.74 1637.29 973.22 1637.29C960.844 1637.29 954.18 1646.26 954.18 1657.69V1693.86ZM1025.88 1611.72C1021.26 1611.72 1017.45 1607.91 1017.45 1603.29C1017.45 1598.53 1021.26 1594.86 1025.88 1594.86C1030.5 1594.86 1034.31 1598.53 1034.31 1603.29C1034.31 1607.91 1030.5 1611.72 1025.88 1611.72ZM1019.62 1694V1627.5H1032.41V1694H1019.62ZM1050.97 1723.78V1627.5H1062.53L1063.48 1639.46C1067.97 1630.35 1076.94 1625.59 1087.55 1625.59C1106.59 1625.59 1118.42 1639.87 1118.42 1660.27C1118.42 1680.54 1107.27 1695.77 1087.55 1695.77C1076.94 1695.77 1068.1 1691.28 1063.75 1683.12V1723.78H1050.97ZM1063.89 1660.82C1063.89 1674.42 1071.77 1684.21 1084.83 1684.21C1097.89 1684.21 1105.64 1674.42 1105.64 1660.82C1105.64 1647.08 1097.89 1637.29 1084.83 1637.29C1071.77 1637.29 1063.89 1646.94 1063.89 1660.82ZM1175.96 1694H1162.09L1197.99 1595.67H1212.81L1248.85 1694H1234.85L1226.01 1669.52H1184.66L1175.96 1694ZM1203.7 1616.89L1188.74 1657.96H1222.06L1206.97 1616.89C1206.29 1614.98 1205.61 1612.67 1205.33 1611.18C1205.06 1612.54 1204.38 1614.85 1203.7 1616.89ZM1277.32 1694H1264.54V1638.24H1251.48V1627.5H1264.54V1606.69H1277.32V1627.5H1290.38V1638.24H1277.32V1694ZM138.904 1770.91V1758.67H211.392V1770.91H181.88V1857H168.552V1770.91H138.904ZM235.399 1856.86H222.615V1756.9H235.399V1800.7C239.615 1793.49 247.639 1788.59 257.975 1788.59C274.975 1788.59 283.135 1799.34 283.135 1816.34V1857H270.351V1819.19C270.351 1805.73 263.959 1800.29 254.439 1800.29C242.063 1800.29 235.399 1809.26 235.399 1820.69V1856.86ZM329.538 1858.63C309.954 1858.63 296.49 1844.49 296.49 1823.82C296.49 1803.01 309.682 1788.59 328.994 1788.59C347.898 1788.59 360.274 1801.65 360.274 1821.37V1826.13L308.866 1826.26C309.818 1840.27 317.162 1848.02 329.81 1848.02C339.738 1848.02 346.266 1843.94 348.442 1836.33H360.41C357.146 1850.61 345.994 1858.63 329.538 1858.63ZM328.994 1799.34C317.842 1799.34 310.77 1806 309.138 1817.7H347.49C347.49 1806.68 340.282 1799.34 328.994 1799.34ZM454.716 1858.5C426.7 1858.5 408.068 1838.37 408.068 1807.9C408.068 1777.58 427.244 1757.04 455.396 1757.04C477.564 1757.04 494.564 1770.23 498.236 1790.36H483.956C480.284 1777.58 469.268 1769.82 454.988 1769.82C435.132 1769.82 422.076 1784.78 422.076 1807.77C422.076 1830.75 435.132 1845.71 454.988 1845.71C469.404 1845.71 480.828 1837.96 484.5 1825.86H498.644C494.428 1845.44 476.884 1858.5 454.716 1858.5ZM508.459 1823.68C508.459 1803.14 523.147 1788.73 543.139 1788.73C562.995 1788.73 577.683 1803.14 577.683 1823.68C577.683 1844.22 562.995 1858.63 543.139 1858.63C523.147 1858.63 508.459 1844.22 508.459 1823.68ZM521.379 1823.68C521.379 1837.55 530.219 1847.21 543.139 1847.21C555.923 1847.21 564.899 1837.55 564.899 1823.68C564.899 1809.81 555.923 1800.15 543.139 1800.15C530.219 1800.15 521.379 1809.81 521.379 1823.68ZM629.914 1789.95V1801.65H624.202C612.098 1801.65 604.618 1808.99 604.618 1821.78V1857H591.834V1790.63H603.802L604.618 1800.7C607.338 1793.76 614.002 1789.14 623.114 1789.14C625.426 1789.14 627.33 1789.41 629.914 1789.95ZM668.21 1858.63C648.626 1858.63 635.162 1844.49 635.162 1823.82C635.162 1803.01 648.354 1788.59 667.666 1788.59C686.57 1788.59 698.946 1801.65 698.946 1821.37V1826.13L647.538 1826.26C648.49 1840.27 655.834 1848.02 668.482 1848.02C678.41 1848.02 684.938 1843.94 687.114 1836.33H699.082C695.818 1850.61 684.666 1858.63 668.21 1858.63ZM667.666 1799.34C656.514 1799.34 649.442 1806 647.81 1817.7H686.162C686.162 1806.68 678.954 1799.34 667.666 1799.34Z" fill="#875D10"/>
<g clip-path="url(#clip2_1_56575)">
<path d="M997.755 862.781C1003.36 862.689 1007.83 858.07 1007.74 852.464C1007.65 846.858 1003.03 842.388 997.422 842.48C991.816 842.572 987.346 847.191 987.438 852.797C987.53 858.403 992.149 862.873 997.755 862.781Z" fill="white"/>
<path d="M938.248 919.777C947.963 919.618 955.71 911.613 955.55 901.898C955.391 892.183 947.386 884.437 937.671 884.596C927.956 884.756 920.21 892.76 920.369 902.475C920.529 912.19 928.534 919.936 938.248 919.777Z" fill="#875D10"/>
<path d="M892.338 945.661C895.865 933.281 888.688 920.386 876.308 916.86C863.927 913.333 851.033 920.51 847.506 932.89C843.979 945.271 851.157 958.165 863.537 961.692C875.917 965.219 888.812 958.041 892.338 945.661Z" fill="#875D10"/>
<path d="M795.724 989.168C810.92 989.168 823.239 976.85 823.239 961.654C823.239 946.458 810.92 934.14 795.724 934.14C780.529 934.14 768.21 946.458 768.21 961.654C768.21 976.85 780.529 989.168 795.724 989.168Z" fill="#875D10"/>
<path d="M718.905 996.961C735.673 996.686 749.044 982.87 748.769 966.101C748.493 949.333 734.677 935.963 717.909 936.238C701.141 936.513 687.771 950.33 688.046 967.098C688.321 983.866 702.137 997.236 718.905 996.961Z" fill="#875D10"/>
<path d="M671.291 965.747C678.94 949.797 672.21 930.668 656.261 923.019C640.312 915.371 621.182 922.1 613.534 938.049C605.885 953.998 612.614 973.128 628.564 980.776C644.513 988.425 663.643 981.696 671.291 965.747Z" fill="#875D10"/>
<path d="M593.677 942.662C607.687 931.349 609.873 910.823 598.561 896.813C587.249 882.804 566.722 880.618 552.713 891.93C538.704 903.242 536.517 923.769 547.829 937.778C559.141 951.787 579.668 953.974 593.677 942.662Z" fill="#875D10"/>
<path d="M516.272 896.934C533.982 896.934 548.338 882.577 548.338 864.868C548.338 847.158 533.982 832.802 516.272 832.802C498.563 832.802 484.207 847.158 484.207 864.868C484.207 882.577 498.563 896.934 516.272 896.934Z" fill="#875D10"/>
<path d="M476.13 829.411C492.941 829.135 506.344 815.284 506.069 798.473C505.793 781.663 491.942 768.259 475.131 768.535C458.321 768.811 444.917 782.662 445.193 799.472C445.468 816.283 459.32 829.687 476.13 829.411Z" fill="#875D10"/>
<path d="M452.844 752.536C468.082 752.536 480.435 740.183 480.435 724.945C480.435 709.706 468.082 697.354 452.844 697.354C437.606 697.354 425.253 709.706 425.253 724.945C425.253 740.183 437.606 752.536 452.844 752.536Z" fill="#875D10"/>
<path d="M447.785 671.036C460.713 670.824 471.021 660.173 470.808 647.245C470.596 634.318 459.945 624.01 447.017 624.222C434.09 624.434 423.782 635.086 423.994 648.013C424.207 660.941 434.858 671.249 447.785 671.036Z" fill="#875D10"/>
<path d="M458.322 588.575C468.107 588.414 475.91 580.351 475.749 570.566C475.589 560.78 467.526 552.977 457.74 553.138C447.955 553.299 440.152 561.361 440.313 571.147C440.473 580.932 448.536 588.735 458.322 588.575Z" fill="#875D10"/>
<path d="M483.394 507.736C489.028 507.644 493.521 503.002 493.428 497.368C493.336 491.734 488.693 487.241 483.059 487.334C477.425 487.426 472.933 492.068 473.025 497.702C473.118 503.336 477.76 507.829 483.394 507.736Z" fill="#875D10"/>
<path d="M946.423 820.645C950.322 816.616 950.216 810.19 946.187 806.291C942.158 802.392 935.731 802.497 931.833 806.526C927.934 810.555 928.039 816.982 932.068 820.881C936.097 824.78 942.524 824.674 946.423 820.645Z" fill="white"/>
<path d="M874.548 818.703C881.304 811.721 881.122 800.583 874.139 793.826C867.157 787.07 856.02 787.252 849.263 794.235C842.506 801.217 842.689 812.354 849.671 819.111C856.653 825.868 867.791 825.685 874.548 818.703Z" fill="#875D10"/>
<path d="M798.897 804.933C810.144 798.673 814.187 784.48 807.927 773.232C801.667 761.984 787.473 757.941 776.226 764.202C764.978 770.462 760.935 784.655 767.195 795.903C773.456 807.151 787.649 811.194 798.897 804.933Z" fill="#875D10"/>
<path d="M719.28 775.432C734.476 775.432 746.794 763.113 746.794 747.918C746.794 732.722 734.476 720.403 719.28 720.403C704.084 720.403 691.766 732.722 691.766 747.918C691.766 763.113 704.084 775.432 719.28 775.432Z" fill="#875D10"/>
<path d="M661.119 727.103C677.89 727.103 691.485 713.508 691.485 696.738C691.485 679.967 677.89 666.372 661.119 666.372C644.349 666.372 630.754 679.967 630.754 696.738C630.754 713.508 644.349 727.103 661.119 727.103Z" fill="#875D10"/>
<path d="M628.373 662.822C645.059 656.953 653.828 638.668 647.958 621.982C642.089 605.296 623.804 596.527 607.118 602.397C590.432 608.266 581.663 626.551 587.533 643.237C593.402 659.923 611.687 668.692 628.373 662.822Z" fill="#875D10"/>
<path d="M625.763 562.676C627.67 544.772 614.701 528.711 596.796 526.804C578.892 524.896 562.831 537.865 560.924 555.77C559.017 573.675 571.985 589.736 589.89 591.643C607.795 593.55 623.856 580.581 625.763 562.676Z" fill="#875D10"/>
<path d="M590.109 513.933C607.818 513.933 622.175 499.576 622.175 481.867C622.175 464.157 607.818 449.801 590.109 449.801C572.399 449.801 558.043 464.157 558.043 481.867C558.043 499.576 572.399 513.933 590.109 513.933Z" fill="#875D10"/>
<path d="M629.49 428.079C641.379 416.19 641.379 396.915 629.49 385.027C617.602 373.138 598.327 373.138 586.439 385.027C574.55 396.915 574.55 416.19 586.439 428.079C598.327 439.967 617.602 439.967 629.49 428.079Z" fill="#875D10"/>
<path d="M644.204 365.672C659.442 365.672 671.795 353.319 671.795 338.081C671.795 322.843 659.442 310.49 644.204 310.49C628.966 310.49 616.613 322.843 616.613 338.081C616.613 353.319 628.966 365.672 644.204 365.672Z" fill="#875D10"/>
<path d="M711.58 296.122C720.722 286.98 720.722 272.157 711.58 263.015C702.437 253.873 687.615 253.873 678.473 263.015C669.33 272.157 669.33 286.98 678.473 296.122C687.615 305.264 702.437 305.264 711.58 296.122Z" fill="#875D10"/>
<path d="M769.565 245.116C776.371 238.083 776.187 226.865 769.154 220.059C762.121 213.253 750.903 213.437 744.097 220.47C737.291 227.503 737.475 238.721 744.508 245.527C751.541 252.333 762.759 252.149 769.565 245.116Z" fill="#875D10"/>
<path d="M833.823 205.872C837.741 201.823 837.635 195.364 833.586 191.445C829.537 187.527 823.078 187.633 819.159 191.682C815.241 195.731 815.347 202.19 819.396 206.109C823.445 210.027 829.904 209.921 833.823 205.872Z" fill="#875D10"/>
<path d="M925.532 754.767C931.138 754.675 935.607 750.056 935.515 744.45C935.423 738.844 930.804 734.374 925.199 734.466C919.593 734.558 915.123 739.177 915.215 744.783C915.307 750.389 919.926 754.859 925.532 754.767Z" fill="white"/>
<path d="M876.098 702.577C885.813 702.417 893.559 694.413 893.399 684.698C893.24 674.983 885.235 667.237 875.52 667.396C865.805 667.555 858.059 675.56 858.219 685.275C858.378 694.99 866.383 702.736 876.098 702.577Z" fill="#875D10"/>
<path d="M861.072 623.295C864.599 610.915 857.422 598.02 845.041 594.494C832.661 590.967 819.766 598.144 816.24 610.524C812.713 622.904 819.891 635.799 832.271 639.326C844.651 642.852 857.546 635.675 861.072 623.295Z" fill="#875D10"/>
<path d="M816.347 570.24C831.543 570.24 843.861 557.921 843.861 542.725C843.861 527.529 831.543 515.211 816.347 515.211C801.151 515.211 788.833 527.529 788.833 542.725C788.833 557.921 801.151 570.24 816.347 570.24Z" fill="#875D10"/>
<path d="M811.919 495.796C828.687 495.521 842.058 481.704 841.782 464.936C841.507 448.168 827.691 434.798 810.923 435.073C794.155 435.348 780.785 449.165 781.06 465.933C781.335 482.701 795.151 496.071 811.919 495.796Z" fill="#875D10"/>
<path d="M854.92 403.225C862.568 387.276 855.839 368.146 839.89 360.498C823.941 352.849 804.811 359.578 797.163 375.528C789.514 391.477 796.243 410.607 812.193 418.255C828.142 425.903 847.272 419.174 854.92 403.225Z" fill="#875D10"/>
<path d="M881.229 345.618C895.238 334.306 897.424 313.779 886.112 299.769C874.8 285.76 854.273 283.574 840.264 294.886C826.255 306.198 824.068 326.725 835.38 340.734C846.693 354.743 867.219 356.93 881.229 345.618Z" fill="#875D10"/>
<path d="M913.146 295.339C930.855 295.339 945.212 280.982 945.212 263.273C945.212 245.563 930.855 231.207 913.146 231.207C895.436 231.207 881.08 245.563 881.08 263.273C881.08 280.982 895.436 295.339 913.146 295.339Z" fill="#875D10"/>
<path d="M979.534 253.095C996.344 252.82 1009.75 238.968 1009.47 222.158C1009.2 205.348 995.345 191.944 978.535 192.219C961.725 192.495 948.321 206.346 948.596 223.157C948.872 239.967 962.723 253.371 979.534 253.095Z" fill="#875D10"/>
<path d="M1053.06 227.435C1068.3 227.435 1080.65 215.082 1080.65 199.844C1080.65 184.606 1068.3 172.253 1053.06 172.253C1037.82 172.253 1025.47 184.606 1025.47 199.844C1025.47 215.082 1037.82 227.435 1053.06 227.435Z" fill="#875D10"/>
<path d="M1130.75 217.835C1143.68 217.623 1153.98 206.972 1153.77 194.044C1153.56 181.117 1142.91 170.809 1129.98 171.021C1117.05 171.233 1106.75 181.885 1106.96 194.812C1107.17 207.74 1117.82 218.047 1130.75 217.835Z" fill="#875D10"/>
<path d="M1207.44 222.776C1217.23 222.615 1225.03 214.552 1224.87 204.767C1224.71 194.981 1216.65 187.179 1206.86 187.339C1197.08 187.5 1189.27 195.563 1189.43 205.348C1189.6 215.134 1197.66 222.936 1207.44 222.776Z" fill="#875D10"/>
<path d="M1280.64 240.456C1286.27 240.364 1290.77 235.721 1290.67 230.087C1290.58 224.453 1285.94 219.961 1280.3 220.053C1274.67 220.146 1270.18 224.788 1270.27 230.422C1270.36 236.056 1275.01 240.549 1280.64 240.456Z" fill="#875D10"/>
<path d="M971.726 693.198C975.625 689.169 975.52 682.742 971.491 678.843C967.462 674.945 961.035 675.05 957.136 679.079C953.237 683.108 953.343 689.535 957.372 693.434C961.401 697.332 967.828 697.227 971.726 693.198Z" fill="white"/>
<path d="M984.191 621.164C990.948 614.182 990.765 603.044 983.783 596.287C976.801 589.531 965.663 589.713 958.906 596.695C952.149 603.678 952.332 614.815 959.314 621.572C966.296 628.329 977.434 628.146 984.191 621.164Z" fill="#875D10"/>
<path d="M1004.72 554.859C1015.97 548.599 1020.01 534.405 1013.75 523.158C1007.49 511.91 993.3 507.867 982.053 514.127C970.805 520.388 966.762 534.581 973.022 545.829C979.283 557.076 993.476 561.119 1004.72 554.859Z" fill="#875D10"/>
<path d="M1030.08 493.793C1045.28 493.793 1057.6 481.475 1057.6 466.279C1057.6 451.083 1045.28 438.765 1030.08 438.765C1014.89 438.765 1002.57 451.083 1002.57 466.279C1002.57 481.475 1014.89 493.793 1030.08 493.793Z" fill="#875D10"/>
<path d="M1081.26 438.484C1098.03 438.484 1111.63 424.889 1111.63 408.118C1111.63 391.348 1098.03 377.753 1081.26 377.753C1064.49 377.753 1050.9 391.348 1050.9 408.118C1050.9 424.889 1064.49 438.484 1081.26 438.484Z" fill="#875D10"/>
<path d="M1156 394.888C1172.68 389.018 1181.45 370.733 1175.58 354.047C1169.71 337.361 1151.43 328.593 1134.74 334.462C1118.06 340.332 1109.29 358.617 1115.16 375.303C1121.03 391.989 1139.31 400.757 1156 394.888Z" fill="#875D10"/>
<path d="M1251.28 343.8C1253.18 325.896 1240.22 309.835 1222.31 307.928C1204.41 306.02 1188.34 318.989 1186.44 336.894C1184.53 354.799 1197.5 370.86 1215.4 372.767C1233.31 374.674 1249.37 361.705 1251.28 343.8Z" fill="#875D10"/>
<path d="M1296.13 369.174C1313.84 369.174 1328.2 354.817 1328.2 337.108C1328.2 319.398 1313.84 305.042 1296.13 305.042C1278.42 305.042 1264.07 319.398 1264.07 337.108C1264.07 354.817 1278.42 369.174 1296.13 369.174Z" fill="#875D10"/>
<path d="M1392.98 376.495C1404.87 364.606 1404.87 345.331 1392.98 333.443C1381.09 321.554 1361.82 321.554 1349.93 333.443C1338.04 345.331 1338.04 364.606 1349.93 376.495C1361.82 388.383 1381.09 388.383 1392.98 376.495Z" fill="#875D10"/>
<path d="M1439.92 418.793C1455.16 418.793 1467.51 406.44 1467.51 391.202C1467.51 375.964 1455.16 363.611 1439.92 363.611C1424.68 363.611 1412.33 375.964 1412.33 391.202C1412.33 406.44 1424.68 418.793 1439.92 418.793Z" fill="#875D10"/>
<path d="M1514.98 458.572C1524.12 449.43 1524.12 434.607 1514.98 425.465C1505.84 416.323 1491.01 416.323 1481.87 425.465C1472.73 434.607 1472.73 449.43 1481.87 458.572C1491.01 467.714 1505.84 467.714 1514.98 458.572Z" fill="#875D10"/>
<path d="M1557.96 516.178C1564.76 509.145 1564.58 497.926 1557.55 491.12C1550.51 484.314 1539.3 484.498 1532.49 491.531C1525.68 498.564 1525.87 509.783 1532.9 516.589C1539.93 523.395 1551.15 523.211 1557.96 516.178Z" fill="#875D10"/>
<path d="M1586.57 580.609C1590.49 576.56 1590.38 570.101 1586.34 566.182C1582.29 562.264 1575.83 562.37 1571.91 566.419C1567.99 570.468 1568.1 576.928 1572.15 580.846C1576.19 584.765 1582.65 584.659 1586.57 580.609Z" fill="#875D10"/>
<path d="M1031.48 682.467C1037.09 682.375 1041.56 677.756 1041.47 672.15C1041.38 666.544 1036.76 662.074 1031.15 662.166C1025.54 662.258 1021.07 666.877 1021.17 672.483C1021.26 678.089 1025.88 682.559 1031.48 682.467Z" fill="white"/>
<path d="M1093.31 640.426C1103.02 640.267 1110.77 632.262 1110.61 622.547C1110.45 612.832 1102.45 605.086 1092.73 605.246C1083.02 605.405 1075.27 613.41 1075.43 623.125C1075.59 632.84 1083.59 640.586 1093.31 640.426Z" fill="#875D10"/>
<path d="M1183.44 592.016C1186.96 579.636 1179.79 566.741 1167.41 563.214C1155.03 559.688 1142.13 566.865 1138.61 579.245C1135.08 591.625 1142.26 604.52 1154.64 608.047C1167.02 611.573 1179.91 604.396 1183.44 592.016Z" fill="#875D10"/>
<path d="M1235.28 590.863C1250.47 590.863 1262.79 578.544 1262.79 563.348C1262.79 548.153 1250.47 535.834 1235.28 535.834C1220.08 535.834 1207.76 548.153 1207.76 563.348C1207.76 578.544 1220.08 590.863 1235.28 590.863Z" fill="#875D10"/>
<path d="M1313.07 588.809C1329.84 588.533 1343.21 574.717 1342.94 557.949C1342.66 541.181 1328.84 527.811 1312.08 528.086C1295.31 528.361 1281.94 542.177 1282.21 558.945C1282.49 575.713 1296.3 589.084 1313.07 588.809Z" fill="#875D10"/>
<path d="M1417.43 586.854C1425.08 570.905 1418.35 551.775 1402.4 544.127C1386.46 536.478 1367.33 543.207 1359.68 559.156C1352.03 575.106 1358.76 594.235 1374.71 601.884C1390.66 609.532 1409.79 602.803 1417.43 586.854Z" fill="#875D10"/>
<path d="M1478.27 633.168C1492.28 621.856 1494.47 601.329 1483.16 587.32C1471.84 573.311 1451.32 571.125 1437.31 582.437C1423.3 593.749 1421.11 614.276 1432.42 628.285C1443.74 642.294 1464.26 644.48 1478.27 633.168Z" fill="#875D10"/>
<path d="M1514.74 692.212C1532.45 692.212 1546.81 677.856 1546.81 660.146C1546.81 642.436 1532.45 628.08 1514.74 628.08C1497.03 628.08 1482.67 642.436 1482.67 660.146C1482.67 677.856 1497.03 692.212 1514.74 692.212Z" fill="#875D10"/>
<path d="M1555.85 756.486C1572.66 756.21 1586.06 742.359 1585.79 725.549C1585.51 708.738 1571.66 695.334 1554.85 695.61C1538.04 695.886 1524.64 709.737 1524.91 726.547C1525.19 743.358 1539.04 756.762 1555.85 756.486Z" fill="#875D10"/>
<path d="M1578.16 827.648C1593.39 827.648 1605.75 815.295 1605.75 800.057C1605.75 784.819 1593.39 772.466 1578.16 772.466C1562.92 772.466 1550.57 784.819 1550.57 800.057C1550.57 815.295 1562.92 827.648 1578.16 827.648Z" fill="#875D10"/>
<path d="M1583.96 900.799C1596.89 900.587 1607.2 889.935 1606.99 877.008C1606.77 864.081 1596.12 853.773 1583.2 853.985C1570.27 854.197 1559.96 864.849 1560.17 877.776C1560.38 890.703 1571.04 901.011 1583.96 900.799Z" fill="#875D10"/>
<path d="M1573.24 971.898C1583.03 971.737 1590.83 963.674 1590.67 953.889C1590.51 944.103 1582.44 936.301 1572.66 936.461C1562.87 936.622 1555.07 944.685 1555.23 954.47C1555.39 964.256 1563.45 972.058 1573.24 971.898Z" fill="#875D10"/>
<path d="M1547.91 1037.7C1553.54 1037.61 1558.03 1032.97 1557.94 1027.33C1557.85 1021.7 1553.21 1017.21 1547.57 1017.3C1541.94 1017.39 1537.45 1022.03 1537.54 1027.67C1537.63 1033.3 1542.27 1037.79 1547.91 1037.7Z" fill="#875D10"/>
<path d="M1099.17 718.503C1103.07 714.474 1102.97 708.047 1098.94 704.148C1094.91 700.249 1088.48 700.355 1084.58 704.384C1080.68 708.413 1080.79 714.839 1084.82 718.738C1088.85 722.637 1095.27 722.532 1099.17 718.503Z" fill="white"/>
<path d="M1181.73 730.808C1188.49 723.826 1188.3 712.689 1181.32 705.932C1174.34 699.175 1163.2 699.358 1156.44 706.34C1149.69 713.322 1149.87 724.46 1156.85 731.217C1163.83 737.973 1174.97 737.791 1181.73 730.808Z" fill="#875D10"/>
<path d="M1254.8 760.688C1266.04 754.428 1270.09 740.235 1263.83 728.987C1257.57 717.739 1243.37 713.696 1232.12 719.957C1220.88 726.217 1216.83 740.41 1223.09 751.658C1229.35 762.906 1243.55 766.949 1254.8 760.688Z" fill="#875D10"/>
<path d="M1311.72 804.595C1326.92 804.595 1339.23 792.276 1339.23 777.081C1339.23 761.885 1326.92 749.566 1311.72 749.566C1296.52 749.566 1284.21 761.885 1284.21 777.081C1284.21 792.276 1296.52 804.595 1311.72 804.595Z" fill="#875D10"/>
<path d="M1369.88 858.626C1386.65 858.626 1400.25 845.031 1400.25 828.261C1400.25 811.491 1386.65 797.896 1369.88 797.896C1353.11 797.896 1339.52 811.491 1339.52 828.261C1339.52 845.031 1353.11 858.626 1369.88 858.626Z" fill="#875D10"/>
<path d="M1423.93 922.498C1440.62 916.629 1449.38 898.344 1443.51 881.658C1437.64 864.971 1419.36 856.203 1402.67 862.072C1385.99 867.942 1377.22 886.227 1383.09 902.913C1388.96 919.599 1407.24 928.368 1423.93 922.498Z" fill="#875D10"/>
<path d="M1470.14 969.316C1472.04 951.411 1459.08 935.35 1441.17 933.443C1423.27 931.536 1407.21 944.505 1405.3 962.41C1403.39 980.314 1416.36 996.375 1434.26 998.282C1452.17 1000.19 1468.23 987.221 1470.14 969.316Z" fill="#875D10"/>
<path d="M1440.89 1075.2C1458.6 1075.2 1472.96 1060.84 1472.96 1043.13C1472.96 1025.42 1458.6 1011.07 1440.89 1011.07C1423.18 1011.07 1408.83 1025.42 1408.83 1043.13C1408.83 1060.84 1423.18 1075.2 1440.89 1075.2Z" fill="#875D10"/>
<path d="M1444.56 1139.97C1456.45 1128.08 1456.45 1108.81 1444.56 1096.92C1432.67 1085.03 1413.4 1085.03 1401.51 1096.92C1389.62 1108.81 1389.62 1128.08 1401.51 1139.97C1413.4 1151.86 1432.67 1151.86 1444.56 1139.97Z" fill="#875D10"/>
<path d="M1386.8 1214.51C1402.03 1214.51 1414.39 1202.16 1414.39 1186.92C1414.39 1171.68 1402.03 1159.33 1386.8 1159.33C1371.56 1159.33 1359.21 1171.68 1359.21 1186.92C1359.21 1202.16 1371.56 1214.51 1386.8 1214.51Z" fill="#875D10"/>
<path d="M1352.53 1261.99C1361.67 1252.84 1361.67 1238.02 1352.53 1228.88C1343.38 1219.74 1328.56 1219.74 1319.42 1228.88C1310.28 1238.02 1310.28 1252.84 1319.42 1261.99C1328.56 1271.13 1343.38 1271.13 1352.53 1261.99Z" fill="#875D10"/>
<path d="M1286.91 1304.56C1293.71 1297.53 1293.53 1286.31 1286.5 1279.5C1279.46 1272.7 1268.24 1272.88 1261.44 1279.91C1254.63 1286.95 1254.82 1298.16 1261.85 1304.97C1268.88 1311.78 1280.1 1311.59 1286.91 1304.56Z" fill="#875D10"/>
<path d="M1211.83 1333.35C1215.75 1329.3 1215.64 1322.84 1211.6 1318.92C1207.55 1315 1201.09 1315.11 1197.17 1319.16C1193.25 1323.21 1193.36 1329.67 1197.41 1333.58C1201.45 1337.5 1207.91 1337.4 1211.83 1333.35Z" fill="#875D10"/>
<path d="M1105.77 790.555C1111.37 790.463 1115.84 785.844 1115.75 780.238C1115.66 774.632 1111.04 770.162 1105.44 770.254C1099.83 770.346 1095.36 774.965 1095.45 780.571C1095.54 786.177 1100.16 790.647 1105.77 790.555Z" fill="white"/>
<path d="M1155.45 857.637C1165.16 857.478 1172.91 849.473 1172.75 839.758C1172.59 830.043 1164.58 822.297 1154.87 822.457C1145.16 822.616 1137.41 830.621 1137.57 840.336C1137.73 850.05 1145.73 857.797 1155.45 857.637Z" fill="#875D10"/>
<path d="M1214.72 914.38C1218.24 902 1211.07 889.105 1198.69 885.579C1186.31 882.052 1173.41 889.229 1169.88 901.609C1166.36 913.989 1173.54 926.884 1185.92 930.411C1198.3 933.937 1211.19 926.76 1214.72 914.38Z" fill="#875D10"/>
<path d="M1214.65 1009.79C1229.85 1009.79 1242.17 997.47 1242.17 982.274C1242.17 967.078 1229.85 954.76 1214.65 954.76C1199.46 954.76 1187.14 967.078 1187.14 982.274C1187.14 997.47 1199.46 1009.79 1214.65 1009.79Z" fill="#875D10"/>
<path d="M1220.07 1089.96C1236.84 1089.68 1250.21 1075.87 1249.93 1059.1C1249.66 1042.33 1235.84 1028.96 1219.07 1029.24C1202.31 1029.51 1188.94 1043.33 1189.21 1060.1C1189.49 1076.86 1203.3 1090.24 1220.07 1089.96Z" fill="#875D10"/>
<path d="M1233.8 1149.37C1241.45 1133.42 1234.72 1114.29 1218.77 1106.64C1202.82 1098.99 1183.69 1105.72 1176.04 1121.67C1168.39 1137.62 1175.12 1156.75 1191.07 1164.4C1207.02 1172.05 1226.15 1165.32 1233.8 1149.37Z" fill="#875D10"/>
<path d="M1190.72 1230.21C1204.73 1218.9 1206.92 1198.37 1195.6 1184.36C1184.29 1170.35 1163.77 1168.17 1149.76 1179.48C1135.75 1190.79 1133.56 1211.32 1144.87 1225.33C1156.19 1239.34 1176.71 1241.52 1190.72 1230.21Z" fill="#875D10"/>
<path d="M1117.87 1293.8C1135.58 1293.8 1149.93 1279.45 1149.93 1261.74C1149.93 1244.03 1135.58 1229.67 1117.87 1229.67C1100.16 1229.67 1085.8 1244.03 1085.8 1261.74C1085.8 1279.45 1100.16 1293.8 1117.87 1293.8Z" fill="#875D10"/>
<path d="M1052.45 1332.81C1069.26 1332.54 1082.66 1318.69 1082.38 1301.88C1082.11 1285.07 1068.26 1271.66 1051.45 1271.94C1034.64 1272.21 1021.23 1286.06 1021.51 1302.87C1021.78 1319.69 1035.63 1333.09 1052.45 1332.81Z" fill="#875D10"/>
<path d="M977.943 1352.75C993.181 1352.75 1005.53 1340.39 1005.53 1325.16C1005.53 1309.92 993.181 1297.56 977.943 1297.56C962.705 1297.56 950.352 1309.92 950.352 1325.16C950.352 1340.39 962.705 1352.75 977.943 1352.75Z" fill="#875D10"/>
<path d="M900.986 1354.01C913.913 1353.8 924.221 1343.15 924.009 1330.22C923.797 1317.29 913.145 1306.98 900.218 1307.2C887.29 1307.41 876.983 1318.06 877.195 1330.99C877.407 1343.92 888.059 1354.22 900.986 1354.01Z" fill="#875D10"/>
<path d="M824.118 1337.69C833.904 1337.53 841.706 1329.47 841.546 1319.68C841.385 1309.9 833.322 1302.1 823.537 1302.26C813.751 1302.42 805.949 1310.48 806.109 1320.27C806.27 1330.05 814.333 1337.85 824.118 1337.69Z" fill="#875D10"/>
<path d="M750.676 1304.97C756.31 1304.88 760.802 1300.23 760.71 1294.6C760.617 1288.96 755.975 1284.47 750.341 1284.57C744.707 1284.66 740.215 1289.3 740.307 1294.93C740.399 1300.57 745.042 1305.06 750.676 1304.97Z" fill="#875D10"/>
<path d="M1073.87 845.961C1077.77 841.932 1077.66 835.505 1073.63 831.606C1069.6 827.707 1063.18 827.813 1059.28 831.842C1055.38 835.871 1055.48 842.297 1059.51 846.196C1063.54 850.095 1069.97 849.99 1073.87 845.961Z" fill="white"/>
<path d="M1072.1 928.346C1078.85 921.363 1078.67 910.226 1071.69 903.469C1064.71 896.712 1053.57 896.895 1046.81 903.877C1040.06 910.859 1040.24 921.997 1047.22 928.754C1054.2 935.511 1065.34 935.328 1072.1 928.346Z" fill="#875D10"/>
<path d="M1048.97 1010.76C1060.22 1004.5 1064.26 990.306 1058 979.058C1051.74 967.81 1037.55 963.767 1026.3 970.028C1015.05 976.288 1011.01 990.481 1017.27 1001.73C1023.53 1012.98 1037.72 1017.02 1048.97 1010.76Z" fill="#875D10"/>
<path d="M1000.92 1086.23C1016.11 1086.23 1028.43 1073.92 1028.43 1058.72C1028.43 1043.52 1016.11 1031.21 1000.92 1031.21C985.722 1031.21 973.404 1043.52 973.404 1058.72C973.404 1073.92 985.722 1086.23 1000.92 1086.23Z" fill="#875D10"/>
<path d="M949.738 1147.25C966.508 1147.25 980.103 1133.65 980.103 1116.88C980.103 1100.11 966.508 1086.51 949.738 1086.51C932.968 1086.51 919.373 1100.11 919.373 1116.88C919.373 1133.65 932.968 1147.25 949.738 1147.25Z" fill="#875D10"/>
<path d="M896.306 1190.43C912.992 1184.56 921.761 1166.28 915.891 1149.59C910.022 1132.91 891.737 1124.14 875.051 1130.01C858.365 1135.88 849.596 1154.16 855.466 1170.85C861.335 1187.53 879.62 1196.3 896.306 1190.43Z" fill="#875D10"/>
<path d="M844.623 1188.18C846.53 1170.27 833.561 1154.21 815.656 1152.3C797.751 1150.4 781.691 1163.36 779.784 1181.27C777.876 1199.17 790.845 1215.23 808.75 1217.14C826.655 1219.05 842.715 1206.08 844.623 1188.18Z" fill="#875D10"/>
<path d="M734.866 1219.96C752.575 1219.96 766.932 1205.6 766.932 1187.89C766.932 1170.18 752.575 1155.82 734.866 1155.82C717.156 1155.82 702.8 1170.18 702.8 1187.89C702.8 1205.6 717.156 1219.96 734.866 1219.96Z" fill="#875D10"/>
<path d="M681.071 1191.55C692.96 1179.67 692.96 1160.39 681.071 1148.5C669.183 1136.61 649.908 1136.61 638.02 1148.5C626.131 1160.39 626.131 1179.67 638.02 1191.55C649.908 1203.44 669.183 1203.44 681.071 1191.55Z" fill="#875D10"/>
<path d="M591.08 1161.39C606.318 1161.39 618.671 1149.03 618.671 1133.8C618.671 1118.56 606.318 1106.2 591.08 1106.2C575.842 1106.2 563.489 1118.56 563.489 1133.8C563.489 1149.03 575.842 1161.39 591.08 1161.39Z" fill="#875D10"/>
<path d="M549.127 1099.53C558.269 1090.39 558.269 1075.57 549.127 1066.43C539.985 1057.28 525.162 1057.28 516.02 1066.43C506.878 1075.57 506.878 1090.39 516.02 1099.53C525.162 1108.68 539.985 1108.68 549.127 1099.53Z" fill="#875D10"/>
<path d="M498.514 1033.51C505.32 1026.48 505.136 1015.26 498.103 1008.45C491.07 1001.65 479.851 1001.83 473.045 1008.86C466.239 1015.9 466.423 1027.11 473.456 1033.92C480.489 1040.73 491.708 1040.54 498.514 1033.51Z" fill="#875D10"/>
<path d="M459.096 958.62C463.015 954.571 462.909 948.112 458.859 944.193C454.81 940.275 448.351 940.381 444.432 944.43C440.514 948.479 440.62 954.938 444.669 958.857C448.718 962.775 455.177 962.669 459.096 958.62Z" fill="#875D10"/>
</g>
<rect opacity="0.62" width="2031" height="2031"/>
<rect x="1675" y="1667" width="215" height="215" rx="107.5" stroke="#875D10" stroke-width="8"/>
<mask id="mask0_1_56575" style="mask-type:alpha" maskUnits="userSpaceOnUse" x="1702" y="1694" width="161" height="161">
<rect x="1702" y="1694" width="161" height="161" fill="#D9D9D9"/>
</mask>
<g mask="url(#mask0_1_56575)">
<path d="M1816.53 1777.85H1738.9C1737.94 1777.85 1737.14 1777.53 1736.5 1776.89C1735.86 1776.25 1735.54 1775.45 1735.54 1774.5C1735.54 1773.55 1735.86 1772.75 1736.5 1772.11C1737.14 1771.47 1737.94 1771.15 1738.9 1771.15H1816.53L1791.48 1746.09C1790.82 1745.44 1790.48 1744.67 1790.45 1743.78C1790.42 1742.9 1790.76 1742.08 1791.48 1741.35C1792.22 1740.61 1793.02 1740.23 1793.87 1740.22C1794.73 1740.2 1795.53 1740.57 1796.27 1741.31L1825.66 1770.71C1826.25 1771.29 1826.66 1771.89 1826.9 1772.5C1827.13 1773.11 1827.25 1773.78 1827.25 1774.5C1827.25 1775.22 1827.13 1775.89 1826.9 1776.5C1826.66 1777.11 1826.25 1777.71 1825.66 1778.29L1796.27 1807.69C1795.61 1808.35 1794.83 1808.69 1793.94 1808.72C1793.04 1808.75 1792.22 1808.39 1791.48 1807.65C1790.76 1806.92 1790.4 1806.12 1790.39 1805.28C1790.38 1804.44 1790.74 1803.65 1791.48 1802.91L1816.53 1777.85Z" fill="#875D10"/>
</g>
</g>
</g>
<defs>
<linearGradient id="paint0_linear_1_56575" x1="1927.83" y1="-281.127" x2="397.464" y2="1889.49" gradientUnits="userSpaceOnUse">
<stop offset="0.0548105" stop-color="#FF9809"/>
<stop offset="1" stop-color="#FFE37D"/>
</linearGradient>
<linearGradient id="paint1_linear_1_56575" x1="1996.11" y1="-332.456" x2="422.189" y2="1974.07" gradientUnits="userSpaceOnUse">
<stop offset="0.0548105" stop-color="#FF9809"/>
<stop offset="1" stop-color="#FFE37D"/>
</linearGradient>
<clipPath id="clip0_1_56575">
<rect width="2031" height="2031" rx="106" fill="white"/>
</clipPath>
<clipPath id="clip1_1_56575">
<rect width="2031" height="2031" fill="white"/>
</clipPath>
<clipPath id="clip2_1_56575">
<rect width="1183" height="1183" fill="white" transform="translate(424 171)"/>
</clipPath>
</defs>
</svg>
