<svg width="1232" height="168" viewBox="0 0 1232 168" fill="none" xmlns="http://www.w3.org/2000/svg">
<path d="M-0.000229069 164.699V3.11546H46.9379L168.645 133.13H169.06V3.11546H201.252V164.699H154.729L32.3996 34.2691H31.9842V164.699H-0.000229069ZM237.23 164.699V3.11546H402.967V31.1537H269.63V68.1227H396.321V95.7456H269.63V136.661H404.836V164.699H237.23ZM530.282 167.814C446.79 167.814 428.721 152.238 428.721 83.9072C428.721 15.5769 446.79 9.67132e-05 530.282 9.67132e-05C608.997 9.67132e-05 627.896 13.0846 627.896 57.3228V61.0612H596.12V60.0228C596.12 34.2691 586.358 28.4538 530.282 28.4538C470.051 28.4538 461.328 34.6845 461.328 83.6995C461.328 133.13 470.051 139.361 530.282 139.361C589.266 139.361 596.535 132.715 596.535 105.922V104.053H628.312V108.83C628.312 154.107 610.45 167.814 530.282 167.814ZM717.392 164.699V31.3614H640.754V3.11546H826.637V31.3614H749.999L749.792 164.699H717.392ZM850.129 164.699V3.11546H1015.87V31.1537H882.529V68.1227H1009.22V95.7456H882.529V136.661H1017.74V164.699H850.129ZM1048.37 164.699V3.11546H1166.13C1215.35 3.11546 1231.14 15.5769 1231.14 52.1305C1231.14 76.4303 1224.07 90.1379 1202.68 95.3302V96.161C1224.7 99.6917 1230.93 107.584 1230.93 135.415V164.699H1198.53V141.022C1198.53 117.761 1194.37 109.246 1159.9 109.246H1080.77V164.699H1048.37ZM1080.77 80.9995H1163.84C1189.81 80.9995 1198.74 76.8457 1198.74 56.2843C1198.74 35.5152 1190.22 31.1537 1163.01 31.1537H1080.77V80.9995Z" fill="white"/>
</svg>
